<?xml version="1.0" standalone="no"?><!-- Generator: Gravit.io --><svg xmlns="http://www.w3.org/2000/svg" xmlns:xlink="http://www.w3.org/1999/xlink" style="isolation:isolate" viewBox="252.475 28 200 200" width="200" height="200"><g id="Group"><g id="Group"><g id="Group"><g id="Group"><path d=" M 252.475 128 C 252.475 72.808 297.284 28 352.475 28 C 407.667 28 452.475 72.808 452.475 128 C 452.475 183.192 407.667 228 352.475 228 C 297.284 228 252.475 183.192 252.475 128 Z " fill="rgb(255,255,255)"/><g id="Group"><path d=" M 432.261 110.087 C 431.517 110.087 430.788 110.159 430.075 110.263 C 423.595 88.142 403.386 72 379.44 72 L 325.141 72 C 322.355 72 319.624 72.222 316.951 72.643 C 315.503 67.942 312.185 63 308.318 63 C 303.116 63 298.899 71.939 298.899 77.207 C 298.899 77.812 298.969 78.402 299.077 78.976 C 287.301 85.759 278.358 96.986 274.467 110.412 C 273.619 110.207 272.74 110.087 271.828 110.087 C 265.559 110.087 260.475 115.235 260.475 121.587 L 260.475 138.467 C 260.475 144.817 265.559 149.966 271.828 149.966 C 273.867 149.966 275.775 149.415 277.428 148.463 C 282.863 160.027 292.276 169.296 303.873 174.47 L 303.873 181.958 C 303.873 189.713 310.08 196 317.735 196 C 325.39 196 331.597 189.713 331.597 181.958 L 331.597 178.999 L 371.01 178.999 L 371.01 181.958 C 371.01 189.713 377.215 196 384.868 196 C 392.526 196 398.732 189.713 398.732 181.958 L 398.732 175.302 C 413.769 169.321 425.437 156.566 430.075 140.736 C 430.788 140.84 431.517 140.913 432.261 140.913 C 440.665 140.913 447.475 134.012 447.475 125.5 C 447.475 116.987 440.665 110.087 432.261 110.087 Z " fill="rgb(255,0,72)" vector-effect="non-scaling-stroke" stroke-width="1" stroke="rgb(0,0,0)" stroke-linejoin="miter" stroke-linecap="square" stroke-miterlimit="3"/><path d=" M 299.966 105.667 C 299.966 103.001 297.833 100.84 295.2 100.84 C 292.568 100.84 290.435 103.001 290.435 105.667 C 290.435 108.333 292.568 110.494 295.2 110.494 C 297.833 110.494 299.966 108.333 299.966 105.667 Z " fill="rgb(0,0,0)"/><path d=" M 312.923 129.181 C 312.884 128.413 312.862 127.64 312.862 126.861 C 312.862 104.745 330.566 86.707 352.64 86.006 L 351.557 167.673 L 351.557 167.673 C 330.761 166.468 314.093 149.869 312.923 129.181" fill="rgb(174,184,232)"/><path d=" M 351.557 167.673 C 352.357 167.716 353.164 167.739 353.975 167.739 C 376.666 167.739 395.089 149.423 395.089 126.861 C 395.089 104.3 376.666 85.984 353.975 85.984 C 353.528 85.984 353.083 85.991 352.64 86.006 L 352.234 116.611 L 352.067 129.181 L 351.557 167.673 L 351.557 167.673 Z " fill="rgb(255,255,255)"/><path d=" M 362.47 132.59 L 362.47 132.59 L 362.47 132.59 Q 362.47 135.778 360.079 137.852 L 360.079 137.852 L 360.079 137.852 Q 357.688 139.926 353.399 140.465 L 353.399 140.465 L 353.399 145.903 L 350.376 145.903 L 350.376 140.676 L 350.376 140.676 Q 347.751 140.676 345.29 140.266 L 345.29 140.266 L 345.29 140.266 Q 342.829 139.856 341.259 139.129 L 341.259 139.129 L 341.259 135.473 L 341.259 135.473 Q 343.204 136.34 345.747 136.891 L 345.747 136.891 L 345.747 136.891 Q 348.29 137.442 350.376 137.442 L 350.376 137.442 L 350.376 127.129 L 350.376 127.129 Q 345.571 125.606 343.638 123.59 L 343.638 123.59 L 343.638 123.59 Q 341.704 121.575 341.704 118.387 L 341.704 118.387 L 341.704 118.387 Q 341.704 115.317 344.083 113.348 L 344.083 113.348 L 344.083 113.348 Q 346.462 111.379 350.376 110.957 L 350.376 110.957 L 350.376 106.692 L 353.399 106.692 L 353.399 110.911 L 353.399 110.911 Q 357.712 111.028 361.72 112.645 L 361.72 112.645 L 360.501 115.715 L 360.501 115.715 Q 357.009 114.332 353.399 114.075 L 353.399 114.075 L 353.399 124.246 L 353.399 124.246 Q 357.079 125.418 358.907 126.532 L 358.907 126.532 L 358.907 126.532 Q 360.735 127.645 361.602 129.086 L 361.602 129.086 L 361.602 129.086 Q 362.47 130.528 362.47 132.59 Z  M 358.485 132.895 L 358.485 132.895 L 358.485 132.895 Q 358.485 131.207 357.442 130.164 L 357.442 130.164 L 357.442 130.164 Q 356.399 129.121 353.399 128.09 L 353.399 128.09 L 353.399 137.207 L 353.399 137.207 Q 358.485 136.504 358.485 132.895 Z  M 345.665 118.34 L 345.665 118.34 L 345.665 118.34 Q 345.665 120.121 346.72 121.2 L 346.72 121.2 L 346.72 121.2 Q 347.774 122.278 350.376 123.239 L 350.376 123.239 L 350.376 114.168 L 350.376 114.168 Q 348.056 114.543 346.86 115.633 L 346.86 115.633 L 346.86 115.633 Q 345.665 116.723 345.665 118.34 Z " fill-rule="evenodd" fill="rgb(0,0,0)"/></g></g></g></g></g></svg>