<?xml version="1.0" standalone="no"?><!-- Generator: Gravit.io --><svg xmlns="http://www.w3.org/2000/svg" xmlns:xlink="http://www.w3.org/1999/xlink" style="isolation:isolate" viewBox="111 243 200 200" width="200" height="200"><g id="Group"><path d=" M 111 343 C 111 287.808 155.808 243 211 243 C 266.192 243 311 287.808 311 343 C 311 398.192 266.192 443 211 443 C 155.808 443 111 398.192 111 343 Z " fill="rgb(255,255,255)"/><g id="Group"><path d=" M 238.355 339.151 C 229.187 337.939 227.072 346.103 216.995 348.467 C 216.995 348.467 204.433 348.798 206.476 352.941 C 207.008 354.02 208.596 354.875 209.886 355.149 C 207.151 355.54 205.144 355.958 205.144 355.958 C 190.532 347.523 187.396 351.812 187.396 351.812 L 205.628 360.787 C 205.628 360.787 229.416 359.986 229.888 359.954 C 230.361 359.922 237.678 348.572 237.678 348.572 L 284.52 366.722 L 287.807 354.223 C 287.807 354.223 241.119 339.517 238.355 339.151 Z " fill="rgb(251,205,159)"/><path d=" M 184.339 351.832 C 186.453 350.234 192.104 349.417 202.132 357.664 C 202.132 357.664 210.103 356.365 217.405 360.158 C 217.405 360.158 236.425 340.681 241.475 340.386 C 246.525 340.091 287.807 354.223 287.807 354.223 L 290.925 369.866 L 277.301 372.959 L 245.925 354.705 C 245.925 354.705 226.325 368.735 223.565 370.682 C 220.002 373.194 208.753 365.108 201.464 363.777 C 198.976 363.323 187.917 356.206 184.428 353.931 C 183.709 353.463 183.652 352.352 184.339 351.832 Z " fill="rgb(255,216,177)"/><path d=" M 247.733 366.251 L 255.411 343.158 L 291.423 354.533 L 295.925 372.42 L 276.061 376.671 L 247.733 366.251 Z " fill="rgb(174,184,232)"/><path d=" M 247.733 366.251 L 259.087 344.319 L 295.925 372.42 L 276.061 376.671 L 247.733 366.251 Z " fill="rgb(174,184,232)"/><path d=" M 250.805 369.227 L 259.425 343.304 L 295.95 355.89 L 295.918 376.703 L 295.899 389.143 L 250.805 369.227 Z " fill="rgb(255,0,72)"/><path d=" M 258.256 366.593 C 258.387 367.563 257.75 368.505 256.833 368.697 C 255.917 368.889 255.068 368.259 254.938 367.289 C 254.807 366.319 255.444 365.377 256.36 365.185 C 257.277 364.993 258.126 365.623 258.256 366.593 Z " fill="rgb(0,0,0)"/><path d=" M 263.405 368.685 C 263.535 369.655 262.898 370.597 261.982 370.789 C 261.065 370.981 260.217 370.35 260.086 369.38 C 259.956 368.41 260.593 367.468 261.509 367.276 C 262.425 367.084 263.274 367.715 263.405 368.685 Z " fill="rgb(0,0,0)"/><path d=" M 178.344 301.345 C 178.344 301.345 193.6 306.677 200.157 298.443 L 208.852 299.588 C 208.852 299.588 213.886 313.397 219.029 311.737 C 221.24 311.023 218.549 308.22 212.536 296.033 C 212.536 296.033 204.23 289.504 190.884 288.92 L 178.344 301.345 Z " fill="rgb(255,210,164)"/><path d=" M 116.941 321.167 L 150.997 297.839 C 151.815 297.279 152.585 296.645 153.325 295.975 C 154.907 294.541 156.853 293.458 159.008 292.822 C 168.787 289.934 193.555 283.147 196.614 283.123 C 198.13 283.111 208.44 295.009 211.019 298.399 C 211.483 299.009 211.784 299.701 211.902 300.43 C 212.496 304.097 214.3 315.707 213.463 316.521 C 212.468 317.488 208.1 317.837 205.14 301.258 L 194.346 297.014 L 191.107 302.275 C 191.107 302.275 179.288 314.158 164.22 307.047 L 116.89 354.604 L 116.941 321.167 Z " fill="rgb(255,216,177)"/><path d=" M 152.11 297.185 C 152.11 297.185 156.671 304.866 163.779 307.491 L 160.322 311.219 L 150.791 298.51 L 152.11 297.185 Z " fill="rgb(249,207,166)"/><path d=" M 166.99 319.53 L 151.927 297.035 L 120.47 319.827 L 120.991 344.793 L 139.183 342.217 L 166.99 319.53 Z " fill="rgb(174,184,232)"/><path d=" M 166.99 319.53 L 148.264 299.767 L 118.682 345.12 L 139.183 342.217 L 166.99 319.53 Z " fill="rgb(174,184,232)"/><path d=" M 164.972 323.847 L 148.063 298.594 L 116.944 319.553 L 116.877 362.534 L 164.972 323.847 Z " fill="rgb(255,0,72)"/><path d=" M 157.505 324.038 C 157.599 324.799 158.254 325.334 158.967 325.233 C 159.68 325.132 160.182 324.433 160.088 323.672 C 159.994 322.911 159.339 322.376 158.625 322.477 C 157.912 322.578 157.41 323.277 157.505 324.038 Z " fill="rgb(0,0,0)"/><path d=" M 154.12 326.979 C 154.214 327.74 154.869 328.275 155.582 328.174 C 156.296 328.073 156.798 327.374 156.703 326.613 C 156.609 325.852 155.954 325.317 155.241 325.418 C 154.528 325.519 154.026 326.218 154.12 326.979 Z " fill="rgb(0,0,0)" vector-effect="non-scaling-stroke" stroke-width="1" stroke="rgb(0,0,0)" stroke-linejoin="miter" stroke-linecap="square" stroke-miterlimit="3"/><path d=" M 192.134 302.499 L 190.347 299.734 C 190.224 299.613 190.225 298.916 190.745 299.152 C 191.9 299.676 191.796 301.368 194.346 297.226 L 192.134 302.499 Z " fill="rgb(255,202,149)"/><path d=" M 214.482 320.633 C 214.509 319.585 214.254 318.519 213.688 317.569 C 212.18 315.037 209.039 314.293 206.673 315.907 C 204.306 317.521 203.61 320.881 205.118 323.413 C 206.194 325.22 208.102 326.116 209.967 325.894" fill="none" vector-effect="non-scaling-stroke" stroke-width="3.072" stroke="rgb(232,232,232)" stroke-linejoin="miter" stroke-linecap="square" stroke-miterlimit="3"/><path d=" M 209.215 325.229 C 210.56 325.419 210.454 327.255 209.109 327.064 C 207.764 326.874 207.87 325.039 209.215 325.229 Z  M 204.614 327.608 L 204.507 329.445 C 204.384 331.574 205.944 333.535 207.991 333.825 L 209.281 334.007 C 211.328 334.297 213.088 332.806 213.212 330.677 L 213.318 328.84 C 213.441 326.711 211.882 324.75 209.834 324.46 L 208.507 323.649 C 206.46 323.36 204.737 325.479 204.614 327.608 Z " fill="rgb(46,55,66)"/><path d=" M 210.438 342.73 L 210.406 343.257 L 208.28 345.049 L 206.474 342.699 L 206.772 337.567 L 206.845 336.297 L 207.309 328.306 L 211.24 328.861 L 210.815 336.212 L 210.741 337.48 L 210.715 337.937 L 211.516 338.784 L 210.629 339.393 L 210.618 339.605 L 211.42 340.453 L 210.533 341.062 L 210.521 341.274 L 211.323 342.122 L 210.438 342.73 Z " fill="rgb(255,255,255)" vector-effect="non-scaling-stroke" stroke-width="0.2" stroke="rgb(0,0,0)" stroke-linejoin="miter" stroke-linecap="square" stroke-miterlimit="3"/><path d=" M 209.544 326.932 C 208.198 326.743 208.323 324.575 209.669 324.764 C 211.014 324.955 210.888 327.123 209.544 326.932 Z  M 213.687 329.833 L 213.793 327.997 C 213.917 325.868 212.358 323.908 210.31 323.616 L 209.02 323.434 C 207.042 323.154 205.331 324.538 205.107 326.554 C 205.1 326.623 205.093 326.694 205.089 326.765 L 204.983 328.602 C 204.921 329.647 205.266 330.652 205.877 331.437 C 206.508 332.253 207.423 332.834 208.466 332.982 L 209.756 333.165 C 211.803 333.454 213.563 331.962 213.687 329.833 Z " fill="rgb(0,0,0)"/><path d=" M 209.563 327.192 C 210.269 327.292 210.876 326.778 210.919 326.044 C 210.961 325.31 210.423 324.634 209.717 324.534" fill="none" vector-effect="non-scaling-stroke" stroke-width="2.895" stroke="rgb(46,55,66)" stroke-linejoin="miter" stroke-linecap="square" stroke-miterlimit="3"/><path d=" M 206.275 332.02 C 206.874 332.514 207.634 332.864 208.474 332.983 L 209.764 333.165 C 210.546 333.276 211.283 333.17 211.902 332.898" fill="none" vector-effect="non-scaling-stroke" stroke-width="1.177" stroke="rgb(46,55,66)" stroke-linejoin="miter" stroke-linecap="square" stroke-miterlimit="3"/><path d=" M 209.717 324.534 C 209.011 324.434 208.405 324.948 208.362 325.682 C 208.32 326.416 208.857 327.093 209.563 327.192" fill="none" vector-effect="non-scaling-stroke" stroke-width="2.895" stroke="rgb(46,55,66)" stroke-linejoin="miter" stroke-linecap="square" stroke-miterlimit="3"/><path d=" M 212.543 324.328 C 213.887 324.127 214.245 325.925 212.901 326.126 C 211.558 326.327 211.199 324.529 212.543 324.328 Z  M 208.707 327.935 L 209.066 329.735 C 209.482 331.822 211.477 333.265 213.522 332.959 L 214.811 332.766 C 216.856 332.46 218.62 330.377 218.176 327.829 L 217.403 326.634 C 216.987 324.547 214.992 323.104 212.946 323.41 L 211.464 323.008 C 209.418 323.314 208.291 325.849 208.707 327.935 Z " fill="rgb(46,55,66)"/><path d=" M 218.248 340.697 L 218.35 341.214 L 216.752 343.548 L 214.422 341.801 L 213.42 336.771 L 213.171 335.527 L 211.612 327.696 L 215.539 327.106 L 216.975 334.31 L 217.222 335.553 L 217.312 336.001 L 218.296 336.588 L 217.595 337.428 L 217.637 337.635 L 218.623 338.223 L 217.921 339.064 L 217.963 339.271 L 218.949 339.859 L 218.248 340.697 Z " fill="rgb(255,255,255)" vector-effect="non-scaling-stroke" stroke-width="0.2" stroke="rgb(0,0,0)" stroke-linejoin="miter" stroke-linecap="square" stroke-miterlimit="3"/><path d=" M 215.804 341.508 L 215.369 340.424 L 212.935 327.341 L 213.141 327.192 L 215.804 341.508 Z " fill="rgb(139,139,139)"/><path d=" M 213.702 325.605 C 212.461 326.194 211.506 324.275 212.746 323.686 C 213.986 323.099 214.942 325.017 213.702 325.605 Z  M 218.141 327.344 L 217.781 325.544 C 217.367 323.458 215.372 322.016 213.326 322.32 L 212.037 322.512 C 210.061 322.809 208.76 324.631 209.051 326.637 C 209.061 326.706 209.072 326.776 209.086 326.846 L 209.445 328.646 C 209.648 329.67 210.233 330.539 211.018 331.121 C 211.831 331.727 212.859 332.025 213.901 331.87 L 215.19 331.677 C 217.234 331.371 218.556 329.431 218.141 327.344 Z " fill="rgb(0,0,0)"/><path d=" M 213.504 325.978 C 214.209 325.873 214.665 325.204 214.522 324.485 C 214.378 323.765 213.69 323.268 212.985 323.373" fill="none" vector-effect="non-scaling-stroke" stroke-width="2.895" stroke="rgb(46,55,66)" stroke-linejoin="miter" stroke-linecap="square" stroke-miterlimit="3"/><path d=" M 211.549 331.569 C 212.249 331.874 213.07 331.994 213.909 331.868 L 215.197 331.676 C 215.978 331.559 216.663 331.246 217.191 330.807" fill="none" vector-effect="non-scaling-stroke" stroke-width="1.177" stroke="rgb(46,55,66)" stroke-linejoin="miter" stroke-linecap="square" stroke-miterlimit="3"/><path d=" M 211.879 325.007 C 213.441 324.558 214.443 322.174 214.482 320.633" fill="none" vector-effect="non-scaling-stroke" stroke-width="3.072" stroke="rgb(223,236,235)" stroke-linejoin="miter" stroke-linecap="square" stroke-miterlimit="3"/><path d=" M 212.985 323.373 C 212.28 323.479 211.825 324.148 211.968 324.867 C 212.111 325.586 212.799 326.084 213.504 325.978" fill="none" vector-effect="non-scaling-stroke" stroke-width="2.895" stroke="rgb(46,55,66)" stroke-linejoin="miter" stroke-linecap="square" stroke-miterlimit="3"/><path d=" M 161.323 306.373 C 161.323 306.373 170.204 309.854 180.697 310.394 C 186.606 310.699 192.384 312.229 197.711 314.774 C 199.032 315.405 200.304 316.015 201.382 316.535 C 206.134 318.829 209.127 323.184 211.161 319.41 C 213.194 315.636 205.915 310.45 199.649 308.013 C 193.383 305.577 189.935 295.066 189.935 295.066 L 161.323 306.373 Z " fill="rgb(255,216,177)"/></g><path d=" M 208.191 341.72 L 208 341.008 L 208.432 333.039 L 208.664 333 L 208.191 341.72 Z " fill="rgb(139,139,139)"/></g></svg>