<?xml version="1.0" standalone="no"?><!-- Generator: Gravit.io --><svg xmlns="http://www.w3.org/2000/svg" xmlns:xlink="http://www.w3.org/1999/xlink" style="isolation:isolate" viewBox="129 236 200 200" width="200" height="200"><g id="Group"><path d=" M 129 336 C 129 280.808 173.808 236 229 236 C 284.192 236 329 280.808 329 336 C 329 391.192 284.192 436 229 436 C 173.808 436 129 391.192 129 336 Z " fill="rgb(255,255,255)"/><path d=" M 292.776 382.469 L 241.395 382.469 L 241.395 292.919 L 292.776 292.919 L 292.776 382.469 Z  M 287.982 277.403 L 246.176 277.403 C 241.276 277.403 237.296 281.755 237.296 287.109 L 237.296 388.309 C 237.296 393.65 241.276 398 246.176 398 L 287.982 398 C 292.895 398 296.86 393.65 296.86 388.309 L 296.86 287.109 C 296.86 281.755 292.895 277.403 287.982 277.403 Z " fill="rgb(0,0,0)"/><path d=" M 292.782 292.925 L 292.782 382.475 L 241.393 382.475 L 241.393 292.925 L 292.782 292.925 Z " fill="rgb(209,209,209)"/><path d=" M 277.558 285.259 C 277.558 285.887 277.063 286.398 276.454 286.398 L 257.709 286.398 C 257.103 286.398 256.605 285.887 256.605 285.259 C 256.605 284.635 257.103 284.126 257.709 284.126 L 276.454 284.126 C 277.063 284.126 277.558 284.635 277.558 285.259 Z " fill="rgb(47,125,132)"/><path d=" M 303.428 287.09 L 303.428 388.089 C 303.428 393.419 299.461 397.76 294.55 397.76 L 287.982 397.76 C 292.895 397.76 296.86 393.419 296.86 388.089 L 296.86 287.09 C 296.86 281.746 292.895 277.403 287.982 277.403 L 294.55 277.403 C 299.461 277.403 303.428 281.746 303.428 287.09 Z " fill="rgb(0,0,0)" vector-effect="non-scaling-stroke" stroke-width="1" stroke="rgb(0,0,0)" stroke-linejoin="miter" stroke-linecap="square" stroke-miterlimit="3"/><path d=" M 292.778 366.56 L 292.778 369.054 L 291.66 370.72 L 288.732 368.62 L 284.793 365.789 L 262.964 350.122 L 262.964 310.267 L 241.399 310.267 L 241.399 306.202 L 266.904 306.202 L 266.904 347.994 L 284.793 360.829 L 288.732 363.66 L 292.778 366.56 Z " fill="rgb(255,255,255)"/><path d=" M 292.778 340.92 L 292.778 342.275 L 281.851 342.275 L 281.851 330.255 L 264.934 330.255 L 264.934 328.9 L 283.164 328.9 L 283.164 340.92 L 292.778 340.92 Z " fill="rgb(255,255,255)"/><path d=" M 267.507 382.469 L 263.266 382.469 L 258.566 370.247 L 257.592 367.725 L 251.8 352.671 L 251.8 292.919 L 255.739 292.919 L 255.739 351.885 L 267.507 382.469 Z " fill="rgb(255,255,255)"/><path d=" M 260.376 369.553 L 258.566 370.247 L 241.399 376.776 L 241.399 373.903 L 257.592 367.725 L 259.472 367.006 L 260.376 369.553 Z " fill="rgb(255,255,255)"/><path d=" M 241.399 337.032 L 246.599 337.032 L 251.8 337.032 L 253.77 337.032 L 253.77 338.387 L 251.8 338.387 L 241.399 338.387 L 241.399 337.032 Z " fill="rgb(255,255,255)"/><path d=" M 271.172 292.919 L 271.172 328.902 L 271.172 329.579 L 273.801 329.579 L 273.801 328.902 L 273.801 305.889 L 273.801 304.536 L 273.801 292.919 L 271.172 292.919 Z " fill="rgb(255,255,255)"/><path d=" M 292.778 304.536 L 292.778 305.889 L 272.486 305.889 L 272.486 304.536 L 292.778 304.536 Z " fill="rgb(255,255,255)"/><path d=" M 288.732 292.919 L 288.732 382.469 L 284.793 382.469 L 284.793 292.919 L 288.732 292.919 Z " fill="rgb(255,255,255)"/><path d=" M 251.8 292.925 L 249.574 292.925 L 249.574 292.919 L 251.8 292.919 L 251.8 292.925 Z  M 245.007 292.925 L 241.395 292.925 L 241.395 292.919 L 245.007 292.919 L 245.007 292.925 Z " fill="rgb(146,118,60)"/><path d=" M 257.721 292.925 L 255.739 292.925 L 255.739 292.919 L 257.719 292.919 C 257.719 292.921 257.721 292.923 257.721 292.925 Z " fill="rgb(146,118,60)"/><path d=" M 259.384 295.592 L 258.137 295.592 L 258.137 293.615 C 258.518 294.235 258.932 294.887 259.384 295.592 Z " fill="rgb(102,85,84)"/><path d=" M 292.776 292.925 L 288.732 292.925 L 288.732 292.919 L 292.776 292.919 L 292.776 292.925 Z " fill="rgb(146,118,60)"/><path d=" M 292.787 295.592 L 292.782 295.592 L 292.782 292.925 L 292.776 292.925 L 292.776 292.919 L 292.787 292.919 L 292.787 295.592 Z " fill="rgb(46,97,103)"/><path d=" M 289.917 283.983 C 289.917 289.354 287.321 292.711 284.222 297.622 L 272.486 314.773 L 260.706 297.672 C 256.962 291.745 255.056 289.354 255.056 283.983 C 255.056 274.053 262.861 266 272.486 266 C 282.112 266 289.917 274.053 289.917 283.983 Z " fill="rgb(0,0,0)" vector-effect="non-scaling-stroke" stroke-width="2" stroke="rgb(255,255,255)" stroke-linejoin="miter" stroke-linecap="square" stroke-miterlimit="3"/><path d=" M 285.203 284.104 C 285.203 291.351 279.511 297.226 272.486 297.226 C 265.462 297.226 259.766 291.351 259.766 284.104 C 259.766 276.856 265.462 270.98 272.486 270.98 C 279.511 270.98 285.203 276.856 285.203 284.104 Z " fill="rgb(255,0,72)"/><path d=" M 273.801 315.417 L 272.486 314.781 L 273.801 314.359 L 273.801 315.417 Z " fill="rgb(183,183,183)"/><path d=" M 292.782 326.641 L 292.778 326.64 L 292.778 305.889 L 292.782 305.887 L 292.782 326.641 Z " fill="rgb(160,116,59)"/><path d=" M 296.862 328.549 L 296.86 328.547 L 296.86 304.114 L 296.862 304.114 L 296.862 328.549 Z " fill="rgb(44,94,98)"/><path d=" M 303.393 389.173 C 303.414 388.903 303.424 388.63 303.424 388.355 L 303.424 317.297 C 303.426 317.295 303.428 317.295 303.428 317.293 L 303.428 388.309 C 303.428 388.6 303.416 388.89 303.393 389.173 Z  M 303.428 305.588 C 303.426 305.588 303.426 305.586 303.424 305.586 L 303.424 302.482 C 303.426 302.48 303.428 302.478 303.428 302.478 L 303.428 305.588 Z  M 303.428 290.766 C 303.426 290.764 303.426 290.764 303.424 290.762 L 303.424 287.147 C 303.424 284.811 302.656 282.672 301.389 280.986 L 301.59 281.194 C 302.742 282.832 303.428 284.885 303.428 287.109 L 303.428 290.766 Z " fill="rgb(45,90,94)"/><path d=" M 304 292.081 C 304 291.566 303.77 291.109 303.424 290.814 L 303.424 290.762 C 303.426 290.764 303.426 290.764 303.428 290.766 C 303.777 291.065 304 291.519 304 292.026 L 304 292.081 Z " fill="rgb(110,111,111)"/><path d=" M 304 306.897 C 304 306.382 303.77 305.928 303.424 305.629 L 303.424 305.586 C 303.426 305.586 303.426 305.588 303.428 305.588 C 303.777 305.889 304 306.341 304 306.848 L 304 306.897 Z " fill="rgb(110,111,111)"/><path d=" M 234.612 291.937 C 228.043 291.538 221.717 291.219 219.543 291.195 C 217.387 291.195 211.048 291.522 204.479 291.899 L 204.463 291.899 C 196.262 292.391 187.683 293.025 186.252 293.287 C 183.665 293.837 181.852 295.697 181.014 296.631 C 180.339 297.427 171.992 312.263 169.125 318.225 C 165.604 319.002 166.539 313.896 164.201 312.223 C 162.59 311.1 160.235 311.993 158.489 312.336 C 156.78 312.619 154.601 313.421 154.473 315.909 C 154.293 318.53 155.13 321.167 157.585 321.834 C 159.099 322.214 160.679 322.441 162.21 322.746 C 162.92 322.876 163.959 323.334 164.698 323.183 C 165.307 322.997 165.406 322.4 165.914 322.179 C 166.441 321.988 167.084 322.257 167.662 322.441 C 167.564 322.746 166.888 323.294 166.657 323.448 L 166.539 323.523 C 165.818 324.079 162.92 326.317 161.387 328.252 C 159.002 331.121 154.935 335.455 154.835 337.885 C 154.735 340.335 153.829 342.122 154.029 347.042 C 154.127 349.431 154.671 356.634 155.229 363.522 C 155.28 364.211 155.33 364.877 155.377 365.538 C 155.444 366.205 155.493 366.866 155.542 367.517 C 155.626 368.372 155.691 369.209 155.757 370.005 C 155.806 370.499 155.838 370.988 155.87 371.468 C 155.971 372.761 156.07 373.938 156.151 374.904 L 156.202 375.457 L 156.251 375.948 C 156.285 376.272 156.299 376.577 156.333 376.839 C 156.399 377.543 156.435 378.002 156.45 378.113 L 156.468 378.645 C 156.468 379.309 156.382 379.997 156.468 380.62 L 156.529 380.96 L 156.644 381.268 L 156.828 381.589 L 157.255 381.97 C 157.502 382.14 157.799 382.253 158.161 382.334 L 158.489 382.385 L 158.869 382.426 C 159.117 382.464 159.378 382.464 159.676 382.464 C 159.99 382.445 162.228 382.483 165.687 382.542 L 166.18 382.558 L 166.707 382.558 C 168.551 382.577 170.675 382.615 173.013 382.653 C 190.632 382.955 219.559 383.435 219.559 383.435 C 219.559 383.435 227.117 383.317 236.848 383.187 L 236.848 319.88 C 236.355 319.858 235.88 319.858 235.4 319.823 L 234.86 319.823 C 234.279 319.801 233.686 319.783 233.114 319.764 C 231.961 319.728 230.822 319.691 229.702 319.669 C 229.143 319.669 228.599 319.65 228.058 319.631 C 227.698 319.631 227.349 319.631 227.019 319.61 C 226.261 319.594 225.52 319.594 224.796 319.594 C 222.887 319.575 221.11 319.575 219.543 319.61 C 218.902 319.594 218.227 319.575 217.533 319.594 C 212.563 319.534 206.072 319.691 199.522 319.934 C 199.047 319.953 198.552 319.974 198.072 319.99 C 197.581 320.012 197.1 320.028 196.608 320.05 C 195.572 320.087 194.549 320.144 193.53 320.179 C 192.408 320.239 191.304 320.298 190.204 320.333 C 189.774 320.355 189.346 320.371 188.936 320.39 C 188.474 320.428 188.028 320.449 187.601 320.468 C 186.563 320.506 185.556 320.56 184.575 320.622 L 184.225 320.622 C 182.941 320.695 181.722 320.77 180.57 320.83 C 179.979 320.87 179.42 320.884 178.874 320.905 C 178.232 320.943 177.605 320.975 177.014 321.019 L 176.915 321.019 C 176.356 321.054 175.811 321.075 175.301 321.113 C 173.77 321.205 172.519 321.264 171.594 321.324 C 171.252 321.34 170.939 321.356 170.691 321.378 C 170.279 321.378 170.031 321.397 169.967 321.397 L 169.934 321.378 C 169.884 321.302 169.934 321.097 170.049 320.792 C 170.114 320.598 170.196 320.371 170.328 320.106 C 170.429 319.823 170.574 319.518 170.739 319.194 L 170.739 319.175 C 170.886 318.854 171.053 318.492 171.252 318.109 C 171.452 317.731 171.645 317.316 171.861 316.878 L 171.861 316.857 C 172.29 315.98 172.783 315.035 173.307 314.045 L 173.327 314.009 C 173.986 312.735 174.692 311.405 175.415 310.042 C 178.743 303.807 182.349 297.335 182.349 297.335 L 182.364 297.314 L 200.953 296.398 L 219.543 295.467 L 236.848 296.363 L 236.848 292.069 C 236.109 292.032 235.351 291.978 234.612 291.937 Z " fill="rgb(255,0,72)" vector-effect="non-scaling-stroke" stroke-width="1" stroke="rgb(0,0,0)" stroke-linejoin="miter" stroke-linecap="square" stroke-miterlimit="3"/><path d=" M 158.95 382.437 C 158.847 382.431 158.748 382.423 158.651 382.412 C 158.478 382.393 158.314 382.367 158.161 382.334 C 158.005 382.299 157.862 382.259 157.729 382.21 C 157.862 382.259 158.005 382.299 158.161 382.334 L 158.489 382.385 L 158.869 382.426 C 158.896 382.429 158.923 382.434 158.95 382.437 Z  M 157.203 381.924 C 157.143 381.878 157.087 381.827 157.034 381.773 L 157.203 381.924 Z " fill="rgb(86,175,197)"/><path d=" M 219.442 383.378 C 219.442 383.378 191.027 382.897 173.721 382.595 C 171.424 382.557 169.337 382.519 167.526 382.5 L 167.526 382.5 C 167.168 382.5 166.846 382.484 166.524 382.484 L 166.524 382.484 L 166.524 382.484 C 163.943 382.438 162.055 382.409 161.16 382.403 C 160.944 382.401 160.785 382.398 160.69 382.398 C 160.66 382.398 160.636 382.398 160.618 382.398 C 160.366 382.398 160.129 382.393 159.906 382.379 C 159.88 382.376 159.853 382.371 159.827 382.368 L 159.453 382.328 L 159.131 382.277 C 158.978 382.241 158.837 382.201 158.707 382.152 C 158.51 382.077 158.339 381.982 158.19 381.866 L 158.025 381.715 C 157.889 381.575 157.779 381.407 157.692 381.21 C 157.302 380.279 157.594 379.1 157.496 378.077 C 157.436 377.637 157.06 373.081 156.611 367.532 C 158.227 369.853 160.7 371.332 163.435 371.332 L 236.42 371.332 L 236.42 383.378 C 226.864 383.507 219.442 383.378 219.442 383.378 Z " fill="rgb(232,1,66)"/><path d=" M 236.848 296.345 L 236.848 319.88 C 236.355 319.858 235.88 319.858 235.4 319.823 L 234.86 319.823 C 234.279 319.801 233.686 319.783 233.114 319.764 C 231.961 319.728 230.822 319.691 229.702 319.669 C 229.143 319.669 228.599 319.65 228.058 319.631 C 227.698 319.631 227.349 319.631 227.019 319.61 C 226.261 319.594 225.52 319.594 224.796 319.594 C 222.887 319.575 221.11 319.594 219.527 319.631 C 218.902 319.61 218.227 319.594 217.533 319.594 C 212.563 319.534 206.072 319.691 199.522 319.934 C 199.047 319.953 198.552 319.974 198.072 319.99 C 197.581 320.012 197.1 320.028 196.608 320.05 C 195.572 320.087 194.549 320.144 193.53 320.179 C 192.408 320.239 191.304 320.298 190.204 320.333 C 189.774 320.355 189.346 320.371 188.936 320.39 C 188.474 320.428 188.028 320.449 187.601 320.468 C 186.563 320.506 185.556 320.56 184.575 320.622 L 184.225 320.622 C 182.941 320.695 181.722 320.77 180.57 320.83 C 179.979 320.87 179.42 320.884 178.874 320.905 C 178.232 320.943 177.605 320.975 177.014 321.019 L 176.915 321.019 C 176.356 321.054 175.811 321.075 175.301 321.113 C 173.77 321.205 172.519 321.264 171.594 321.324 C 170.658 321.378 170.082 321.415 169.967 321.415 L 169.934 321.378 C 169.884 321.302 169.934 321.097 170.049 320.792 C 170.135 320.598 170.213 320.371 170.328 320.106 C 170.446 319.823 170.59 319.518 170.739 319.194 L 170.739 319.175 C 170.886 318.854 171.069 318.492 171.252 318.109 C 171.452 317.731 171.645 317.316 171.861 316.878 L 171.861 316.857 C 172.304 316.007 172.796 315.054 173.307 314.045 L 173.327 314.009 C 173.986 312.735 174.692 311.405 175.415 310.042 C 178.743 303.807 182.349 297.335 182.349 297.335 L 200.953 296.398 L 219.559 295.451 L 236.848 296.345 Z " fill="rgb(174,184,232)" vector-effect="non-scaling-stroke" stroke-width="1" stroke="rgb(0,0,0)" stroke-linejoin="miter" stroke-linecap="square" stroke-miterlimit="3"/><path d=" M 199.977 317.61 L 216.389 298.677 L 219.647 298.525 L 234.311 299.3 L 218.71 317.302 C 217.736 317.262 216.691 317.262 215.555 317.262 C 210.989 317.262 205.513 317.38 199.977 317.61 Z " fill="rgb(174,184,232)"/><path d=" M 159.494 347.374 C 160.402 352.489 166.039 352.489 169.666 352.489 C 174.901 352.489 179.602 353.649 183.897 348.961 L 183.93 348.961 L 183.93 348.926 C 183.897 344.241 179.398 342.419 174.97 341.569 L 174.768 341.528 C 174.398 341.45 174.027 341.374 173.66 341.337 C 173.425 341.337 173.225 341.296 173.023 341.261 C 172.517 341.177 172.05 341.064 171.544 340.986 C 171.179 340.951 170.838 340.875 170.539 340.834 C 169.935 340.754 169.398 340.675 168.929 340.603 C 166.845 340.327 164.798 340.176 162.683 340.216 C 160.402 340.176 159.929 339.871 159.494 342.303 C 159.193 343.893 159.193 345.984 159.494 347.374 Z " fill="rgb(255,255,255)" vector-effect="non-scaling-stroke" stroke-width="1" stroke="rgb(0,0,0)" stroke-linejoin="miter" stroke-linecap="square" stroke-miterlimit="3"/><path d=" M 172.956 382.666 L 172.954 393.697 C 172.95 394.471 172.4 395.095 171.74 395.103 L 156.429 395.089 C 155.76 395.089 155.218 394.453 155.216 393.678 L 155.234 363.522 C 155.797 370.739 156.382 377.584 156.439 378.113 C 156.541 379.171 156.235 380.345 156.633 381.271 C 157.048 382.215 158.06 382.456 159.675 382.456 C 160.167 382.448 165.558 382.553 172.956 382.666 Z " fill="rgb(0,0,0)"/><path d=" M 236.848 348.616 L 236.848 362.024 L 198.17 362.024 C 197.973 362.024 197.741 361.968 197.497 361.857 L 197.478 361.838 L 197.036 361.571 L 196.625 361.228 L 196.163 360.734 L 195.816 360.202 L 195.622 359.727 L 192.772 351.52 L 191.851 348.899 L 191.8 348.751 L 191.785 348.616 L 236.848 348.616 Z " fill="rgb(174,184,232)"/><path d=" M 197.474 361.847 L 197.032 361.58 L 196.62 361.238 L 196.159 360.744 L 195.812 360.212 L 195.617 359.737 L 192.767 351.529 L 191.859 348.909 L 191.796 348.76 L 191.78 348.625 L 201.402 348.625 L 213.069 348.625 C 213.301 348.625 213.513 348.663 213.725 348.722 L 214.206 348.909 L 214.714 349.216 L 214.732 349.232 L 215.211 349.67 L 215.637 350.166 C 215.933 350.541 216.197 351.003 216.425 351.473 C 216.56 351.705 216.676 351.969 216.772 352.215 C 216.888 352.46 216.988 352.728 217.084 353.016 L 217.2 353.351 L 217.314 353.696 L 217.514 354.385 C 217.63 354.838 217.729 355.275 217.811 355.729 C 218.09 357.23 218.189 358.695 218.09 359.831 L 218.025 360.347 L 217.909 360.876 L 217.745 361.335 L 217.578 361.618 L 217.448 361.788 L 216.925 362.017 L 198.151 362.017 C 197.952 362.017 197.724 361.961 197.492 361.866 L 197.474 361.847 Z  M 225.992 348.625 L 236.844 348.625 L 236.844 345.907 L 191.647 345.907 C 189.802 345.907 188.896 347.716 189.67 349.918 L 193.425 360.744 C 194.197 362.968 196.307 364.733 198.151 364.733 L 236.844 364.733 L 236.844 362.017 L 222.124 362.017 C 219.522 362.017 221.299 348.625 225.992 348.625 Z " fill="rgb(255,255,255)" vector-effect="non-scaling-stroke" stroke-width="1" stroke="rgb(0,0,0)" stroke-linejoin="miter" stroke-linecap="square" stroke-miterlimit="3"/><path d=" M 236.42 321.523 L 236.42 341.882 C 231.483 342.384 225.75 342.667 219.115 342.667 C 170.824 342.667 170.343 327.68 170.343 324.128 C 170.343 320.554 209.089 321.677 219.115 321.677 C 222.477 321.677 229.111 321.542 236.42 321.523 Z " fill="rgb(234,2,68)"/><path d=" M 181.952 318.428 L 198.266 299.608 L 210.484 298.989 L 194.138 317.845 C 189.809 318.039 185.613 318.231 181.952 318.428 Z " fill="rgb(174,184,232)"/><path d=" M 236.848 371.39 L 236.844 371.39 L 236.844 364.723 L 236.848 364.723 L 236.848 371.39 Z  M 236.848 345.898 L 236.844 345.898 L 236.844 341.871 C 236.846 341.868 236.846 341.868 236.848 341.868 L 236.848 345.898 Z  M 154.905 337.38 C 155.465 334.889 159.159 330.932 161.387 328.252 C 162.92 326.317 165.818 324.079 166.539 323.523 L 166.657 323.448 C 166.876 323.299 167.496 322.803 167.643 322.49 C 167.648 322.49 167.654 322.492 167.659 322.495 C 167.542 322.816 166.887 323.356 166.654 323.518 L 166.537 323.572 C 165.811 324.139 162.911 326.379 161.366 328.322 C 159.157 330.97 155.527 334.867 154.905 337.38 Z  M 236.844 321.51 L 236.844 319.88 C 236.846 319.88 236.846 319.88 236.848 319.88 L 236.848 321.51 C 236.846 321.51 236.846 321.51 236.844 321.51 Z  M 168.432 318.366 C 165.716 318.366 166.372 313.847 164.197 312.29 C 163.61 311.88 162.923 311.734 162.204 311.734 C 160.947 311.734 159.59 312.177 158.488 312.398 C 156.932 312.646 154.968 313.34 154.543 315.34 C 154.949 313.297 156.917 312.598 158.489 312.336 C 159.604 312.117 160.966 311.675 162.225 311.675 C 162.938 311.675 163.618 311.818 164.201 312.223 C 166.376 313.777 165.718 318.303 168.448 318.303 C 168.653 318.303 168.878 318.279 169.125 318.225 C 171.992 312.263 180.339 297.427 181.014 296.631 C 181.852 295.697 183.665 293.837 186.252 293.287 C 186.933 293.162 189.231 292.955 192.337 292.717 L 192.367 292.752 C 189.232 293.022 186.915 293.211 186.237 293.343 C 183.662 293.886 181.839 295.748 180.996 296.693 C 180.317 297.5 171.989 312.32 169.11 318.285 C 168.863 318.339 168.637 318.366 168.432 318.366 Z  M 236.848 296.345 L 236.844 296.345 L 236.844 292.131 C 236.095 292.102 235.349 292.048 234.597 291.994 C 234.605 291.975 234.609 291.956 234.616 291.937 C 235.353 291.978 236.111 292.032 236.848 292.069 L 236.848 296.345 Z " fill="rgb(255,0,72)"/><path d=" M 236.844 383.187 L 236.844 371.39 L 236.848 371.39 L 236.848 383.187 C 236.846 383.187 236.846 383.187 236.844 383.187 Z " fill="rgb(155,127,62)"/><path d=" M 236.848 319.88 L 236.848 319.88 C 236.846 319.88 236.846 319.88 236.844 319.88 L 236.844 296.345 L 236.848 296.345 L 236.848 319.88 Z " fill="rgb(44,96,100)"/><path d=" M 172.943 393.88 C 172.946 393.837 172.948 393.791 172.948 393.748 L 172.948 382.734 C 171.566 382.709 170.234 382.68 169.016 382.655 C 170.245 382.655 171.567 382.68 172.956 382.707 L 172.954 393.697 C 172.954 393.759 172.95 393.821 172.943 393.88 Z  M 155.224 379.573 L 155.234 363.835 L 155.236 363.87 L 155.224 379.573 Z " fill="rgb(55,55,55)"/><path d=" M 236.848 362.008 L 236.844 362.008 L 236.844 348.616 L 236.848 348.616 L 236.848 362.008 Z " fill="rgb(89,103,105)"/><path d=" M 236.848 364.723 L 236.848 364.723 L 236.844 364.723 L 236.844 362.008 L 236.848 362.008 L 236.848 364.723 Z  M 236.848 348.616 L 236.848 348.616 L 236.844 348.616 L 236.844 345.898 L 236.848 345.898 L 236.848 348.616 Z " fill="rgb(156,156,156)"/><path d=" M 236.844 341.871 L 236.844 321.51 C 236.846 321.51 236.846 321.51 236.848 321.51 L 236.848 321.51 L 236.848 341.868 L 236.848 341.868 C 236.846 341.868 236.846 341.868 236.844 341.871 Z " fill="rgb(170,149,65)"/></g></svg>