<?xml version="1.0" standalone="no"?><!-- Generator: Gravit.io --><svg xmlns="http://www.w3.org/2000/svg" xmlns:xlink="http://www.w3.org/1999/xlink" style="isolation:isolate" viewBox="37 226 200 200" width="200" height="200"><g id="Group"><path d=" M 37 326 C 37 270.808 81.808 226 137 226 C 192.192 226 237 270.808 237 326 C 237 381.192 192.192 426 137 426 C 81.808 426 37 381.192 37 326 Z " fill="rgb(255,255,255)"/><g id="Group"><g id="Group"><path d=" M 211.172 333.723 C 211.172 372.536 177.667 404 136.335 404 C 95.003 404 61.5 372.536 61.5 333.723 C 61.5 294.908 95.003 263.445 136.335 263.445 C 177.667 263.445 211.172 294.908 211.172 333.723 Z " fill="rgb(185,193,193)"/><path d=" M 136.335 404 C 102.224 404 73.445 382.569 64.429 353.262 C 62.967 347.288 62.192 341.045 62.192 334.619 C 62.192 324.203 64.23 314.261 67.931 305.177 C 79.582 280.588 105.826 263.445 136.335 263.445 C 177.667 263.445 211.172 294.908 211.172 333.723 C 211.172 372.536 177.667 404 136.335 404 Z " fill="rgb(174,184,232)"/><defs><filter id="giuCPGRv58bF4hrVQt0QUWRT1Se4xsP7" x="-200%" y="-200%" width="400%" height="400%"><feOffset xmlns="http://www.w3.org/2000/svg" in="SourceAlpha" result="offOut" dx="0" dy="0"/><feGaussianBlur xmlns="http://www.w3.org/2000/svg" in="offOut" result="blurOut" stdDeviation="2.5"/><feComponentTransfer xmlns="http://www.w3.org/2000/svg" in="blurOut" result="opacOut"><feFuncA xmlns="http://www.w3.org/2000/svg" type="table" tableValues="0 0.5"/></feComponentTransfer><feBlend xmlns="http://www.w3.org/2000/svg" in="SourceGraphic" in2="opacOut" mode="normal"/></filter></defs><g filter="url(#giuCPGRv58bF4hrVQt0QUWRT1Se4xsP7)"><path d=" M 212.5 321.119 C 212.5 361.503 179.188 394.24 138.095 394.24 C 129.685 394.24 121.6 392.869 114.061 390.341 C 84.763 380.519 63.692 353.238 63.692 321.119 C 63.692 280.736 97.004 248 138.095 248 C 179.188 248 212.5 280.736 212.5 321.119 Z " fill="rgb(255,0,72)" vector-effect="non-scaling-stroke" stroke-width="1" stroke="rgb(0,0,0)" stroke-linejoin="miter" stroke-linecap="square" stroke-miterlimit="3"/></g><path d=" M 204.569 320.781 C 204.569 355.966 174.611 384.491 137.665 384.491 C 100.712 384.491 70.758 355.966 70.758 320.781 C 70.758 303.188 78.246 287.261 90.354 275.731 C 102.462 264.202 119.188 257.07 137.665 257.07 C 174.611 257.07 204.569 285.596 204.569 320.781 Z " fill="rgb(0,0,0)"/><path d=" M 203.271 320.849 C 203.271 354.5 174.347 381.783 138.671 381.783 C 102.997 381.783 74.075 354.5 74.075 320.849 C 74.075 305.63 79.99 291.715 89.769 281.036 C 98.362 271.653 109.938 264.769 123.107 261.696 C 128.092 260.533 133.305 259.916 138.671 259.916 C 174.347 259.916 203.271 287.196 203.271 320.849 Z " fill="rgb(255,255,255)"/><path d=" M 143.719 373.657 C 143.719 375.452 142.169 376.907 140.259 376.907 C 138.345 376.907 136.799 375.452 136.799 373.657 C 136.799 371.863 138.345 370.408 140.259 370.408 C 142.169 370.408 143.719 371.863 143.719 373.657 Z " fill="rgb(79,43,4)"/><path d=" M 141.559 268.851 C 141.559 270.646 140.005 272.101 138.097 272.101 C 136.183 272.101 134.635 270.646 134.635 268.851 C 134.635 267.056 136.183 265.602 138.097 265.602 C 140.005 265.602 141.559 267.056 141.559 268.851 Z " fill="rgb(0,0,0)"/><path d=" M 199.091 320.849 C 199.091 322.643 197.539 324.099 195.631 324.099 C 193.717 324.099 192.171 322.643 192.171 320.849 C 192.171 319.055 193.717 317.599 195.631 317.599 C 197.539 317.599 199.091 319.055 199.091 320.849 Z " fill="rgb(0,0,0)"/><path d=" M 139.395 321.66 C 139.17 322.618 138.067 323.204 136.93 322.971 C 135.791 322.739 135.048 321.774 135.27 320.817 L 146.358 273.085 C 146.582 272.127 147.686 271.539 148.823 271.772 C 149.96 272.007 150.701 272.972 150.481 273.928 L 139.395 321.66 Z " fill="rgb(255,0,72)"/><path d=" M 141.919 326.112 C 141.043 326.524 139.539 325.374 138.559 323.542 C 137.58 321.711 137.493 319.89 138.368 319.477 L 181.966 298.896 C 182.842 298.483 184.344 299.634 185.326 301.466 C 186.305 303.298 186.392 305.118 185.519 305.53 L 141.919 326.112 Z " fill="rgb(255,0,72)"/><path d=" M 142.938 323.787 C 142.203 326.964 138.952 328.999 135.683 328.33 C 132.419 327.659 130.368 324.54 131.104 321.364 C 131.846 318.185 135.092 316.15 138.36 316.82 C 141.627 317.49 143.677 320.61 142.938 323.787 Z " fill="rgb(0,0,0)"/><path d=" M 83.159 322.879 C 83.159 324.675 81.607 326.13 79.697 326.13 C 77.785 326.13 76.235 324.675 76.235 322.879 C 76.235 321.084 77.785 319.63 79.697 319.63 C 81.607 319.63 83.159 321.084 83.159 322.879 Z " fill="rgb(0,0,0)"/></g></g></g></svg>